<svg width="320" height="150" viewBox="0 0 320 150" fill="none" xmlns="http://www.w3.org/2000/svg">
  <defs>
    <linearGradient id="somiCoral" x1="56" y1="8" x2="264" y2="112" gradientUnits="userSpaceOnUse">
      <stop stop-color="#F58C82"/>
      <stop offset="1" stop-color="#EE766C"/>
    </linearGradient>
  </defs>
  <g fill="none" stroke="url(#somiCoral)" stroke-width="9" stroke-linecap="round" stroke-linejoin="round">
    <path d="M80 87C80 58.2812 103.281 35 132 35C149 35 163.5 42 172.5 54.5"/>
    <path d="M240 87C240 58.2812 216.719 35 188 35C171 35 156.5 42 147.5 54.5"/>
    <path d="M96 99C108 113 126 120 145 120C155.5 120 166 117.5 175 112.5"/>
    <path d="M224 99C212 113 194 120 175 120C164.5 120 154 117.5 145 112.5"/>
    <path d="M126 57C143 71 154 84 166 96"/>
    <path d="M194 57C177 71 166 84 154 96"/>
    <path d="M132 34C129 21 133 13 144 8C150 15 154 23 154 31"/>
    <path d="M188 34C191 21 187 13 176 8C170 15 166 23 166 31"/>
    <path d="M132 34C117 20 103 17 90 23C92 37 98 46 112 53"/>
    <path d="M188 34C203 20 217 17 230 23C228 37 222 46 208 53"/>
    <path d="M86 38C76 31 69 31 62 36"/>
    <path d="M234 38C244 31 251 31 258 36"/>
  </g>
  <text x="160" y="122" text-anchor="middle" font-family="Manrope, Arial, sans-serif" font-size="42" font-weight="500" letter-spacing="8" fill="#F07E74">SOMI</text>
  <text x="160" y="145" text-anchor="middle" font-family="Manrope, Arial, sans-serif" font-size="14" font-weight="500" letter-spacing="2.8" fill="#2B7C79">ЖІНОЧЕ ЗДОРОВ'Я</text>
</svg>
